<svg xmlns="http://www.w3.org/2000/svg" width="292" height="299" fill="none" viewBox="0 0 292 299"><path fill="#0A102F" stroke="#0A102F" stroke-width="2" d="M139.941 298V8H152.061V298H139.941Z"/><path fill="#0A102F" stroke="#0A102F" stroke-width="2" d="M1 159.06L1 146.94H291V159.06H1Z"/><path fill="#0A102F" stroke="#0A102F" stroke-width="2" d="M244.217 259.804L39.1583 54.7451L47.7283 46.1751L252.787 251.234L244.217 259.804Z"/><path fill="#0A102F" stroke="#0A102F" stroke-width="2" d="M47.7283 259.801L39.1583 251.231L244.217 46.1724L252.787 54.7424L47.7283 259.801Z"/><path fill="#0A102F" stroke="#0A102F" stroke-width="2" d="M278.04 213.367L9.47137 103.95L14.0442 92.726L282.613 202.143L278.04 213.367Z"/><path fill="#0A102F" stroke="#0A102F" stroke-width="2" d="M96.9495 289.631L85.7253 285.059L195.142 16.4895L206.367 21.0624L96.9495 289.631Z"/><path fill="#0A102F" stroke="#0A102F" stroke-width="2" d="M13.8462 212.746L9.32063 201.503L278.354 93.2165L282.879 104.46L13.8462 212.746Z"/><path fill="#0A102F" stroke="#0A102F" stroke-width="2" d="M194.413 289.883L86.1565 20.8503L97.4001 16.3259L205.657 285.359L194.413 289.883Z"/><path fill="#03CD69" d="M153.061 0L138.941 0V292H153.061V0Z"/><path fill="#03CD69" d="M292 138.94H0L0 153.06H292V138.94Z"/><path fill="#03CD69" d="M47.7283 37.7609L37.7441 47.7451L244.217 254.218L254.202 244.234L47.7283 37.7609Z"/><path fill="#03CD69" d="M244.217 37.7582L37.7441 244.231L47.7283 254.216L254.202 47.7424L244.217 37.7582Z"/><path fill="#03CD69" d="M13.4954 84.4226L8.16797 97.499L278.589 207.671L283.917 194.594L13.4954 84.4226Z"/><path fill="#03CD69" d="M194.594 8.1861L84.4219 278.607L97.4983 283.935L207.67 13.5136L194.594 8.1861Z"/><path fill="#03CD69" d="M278.908 84.9154L8.01953 193.948L13.2919 207.047L284.18 98.0145L278.908 84.9154Z"/><path fill="#03CD69" d="M97.9545 8.02493L84.8555 13.2959L193.859 284.184L206.958 278.913L97.9545 8.02493Z"/></svg>